<!DOCTYPE svg PUBLIC "-//W3C//DTD SVG 20010904//EN" "http://www.w3.org/TR/2001/REC-SVG-20010904/DTD/svg10.dtd">
<svg version="1.0" xmlns="http://www.w3.org/2000/svg" width="500px" height="500px" viewBox="0 0 5000 5000" preserveAspectRatio="xMidYMid meet">
<g id="layer101" fill="#000000" stroke="none">
 <path d="M1935 4869 c-65 -9 -209 -37 -237 -45 -14 -4 -18 -16 -18 -47 0 -66 19 -166 45 -241 14 -39 23 -71 22 -72 -1 -1 -45 67 -97 152 -86 138 -98 154 -123 154 -48 0 -327 -114 -327 -134 0 -11 59 -103 161 -251 30 -44 109 -159 174 -255 172 -254 320 -470 1155 -1692 230 -338 534 -783 812 -1191 504 -739 482 -707 497 -707 12 0 179 173 238 245 313 385 502 843 554 1344 17 161 6 501 -20 656 -54 319 -164 621 -320 881 -71 118 -64 114 -182 131 -128 19 -412 22 -529 4 -123 -18 -292 -57 -400 -91 -51 -17 -93 -29 -94 -28 -1 2 4 116 11 253 13 272 32 441 68 606 12 59 20 111 16 117 -3 6 -44 26 -91 45 -190 78 -394 137 -412 119 -8 -8 -6 -38 8 -109 25 -126 25 -521 1 -748 -22 -212 -58 -467 -67 -484 -9 -16 -46 34 -254 349 -233 351 -358 569 -430 753 -32 79 -66 209 -66 247 0 24 -17 52 -29 49 -4 -1 -33 -5 -66 -10z m2129 -1536 c37 -6 40 -9 82 -98 94 -198 153 -442 174 -725 19 -260 9 -445 -36 -646 -32 -146 -111 -375 -130 -381 -5 -2 -21 16 -36 39 -14 24 -54 84 -89 133 -34 50 -105 153 -158 230 -131 193 -436 632 -638 920 -92 131 -175 251 -184 266 l-17 26 97 43 c197 88 411 152 617 184 96 15 255 20 318 9z"/>
 <path d="M689 4243 c-84 -93 -279 -393 -279 -429 0 -13 39 -44 120 -98 66 -43 119 -81 117 -83 -2 -2 -34 6 -70 17 -86 27 -216 43 -232 30 -25 -21 -145 -356 -145 -406 0 -19 4 -20 134 -43 283 -51 499 -174 802 -456 55 -51 124 -120 151 -152 l51 -58 -70 -75 c-165 -178 -261 -316 -355 -510 -95 -196 -182 -499 -229 -797 l-18 -112 49 -58 c79 -96 245 -255 358 -344 426 -336 935 -520 1483 -536 330 -10 587 29 912 139 153 51 406 175 410 201 2 11 -13 39 -35 65 -22 26 -727 877 -1567 1892 -840 1015 -1533 1846 -1540 1848 -7 2 -28 -14 -47 -35z m1096 -2185 c22 -27 67 -83 100 -123 33 -40 114 -142 180 -225 66 -84 158 -200 205 -259 47 -58 112 -141 145 -184 33 -43 74 -95 90 -116 17 -21 59 -76 95 -123 36 -47 100 -131 143 -187 44 -56 76 -105 73 -108 -3 -3 -92 -6 -198 -6 -229 0 -337 16 -513 74 -275 91 -481 221 -674 424 -82 87 -82 88 -76 129 29 173 113 402 205 556 43 73 154 200 174 200 6 -1 29 -24 51 -52z"/>
 </g>

</svg>