<?xml version="1.0" standalone="no"?>
<!DOCTYPE svg PUBLIC "-//W3C//DTD SVG 20010904//EN"
 "http://www.w3.org/TR/2001/REC-SVG-20010904/DTD/svg10.dtd">
<svg version="1.0" xmlns="http://www.w3.org/2000/svg"
 width="700.000000pt" height="700.000000pt" viewBox="0 0 700.000000 700.000000"
 preserveAspectRatio="xMidYMid meet">
<metadata>
Created by potrace 1.11, written by Peter Selinger 2001-2013
</metadata>
<g transform="translate(0.000000,700.000000) scale(0.100000,-0.100000)"
fill="#000000" stroke="none">
<path d="M3557 6814 c-1 -1 -51 -4 -112 -8 -60 -4 -126 -9 -145 -11 -19 -3
-53 -7 -75 -9 -22 -3 -71 -10 -110 -16 -38 -7 -83 -14 -100 -17 -164 -26 -502
-127 -697 -209 -118 -50 -367 -174 -430 -215 -20 -13 -78 -51 -130 -84 -123
-79 -231 -159 -353 -264 -119 -103 -332 -313 -401 -396 -27 -33 -55 -66 -62
-74 -7 -7 -11 -19 -8 -26 2 -7 7 -34 11 -61 4 -27 16 -94 26 -149 11 -55 22
-118 25 -140 10 -69 111 -455 149 -570 100 -297 237 -564 389 -759 25 -33 46
-62 46 -66 0 -3 15 -22 33 -41 17 -19 59 -66 92 -104 33 -39 84 -96 114 -128
l54 -57 -19 -22 c-123 -145 -344 -354 -526 -499 -282 -225 -565 -360 -866
-414 -22 -4 -98 -18 -147 -29 -44 -9 -42 -39 11 -203 67 -203 144 -391 162
-394 61 -11 171 3 301 37 52 13 96 22 99 19 7 -6 12 -2 -83 -65 -44 -29 -113
-78 -154 -108 -69 -52 -73 -56 -68 -87 5 -30 129 -242 199 -340 120 -167 157
-215 196 -254 l44 -45 30 33 c16 17 66 75 111 129 104 126 231 276 237 282 3
3 64 75 135 160 71 85 137 164 147 175 31 37 771 930 837 1010 36 44 68 82 71
85 4 3 37 43 75 90 38 47 77 94 87 105 26 31 421 507 543 654 161 195 268 324
280 337 5 7 89 107 185 224 96 117 257 312 358 434 221 266 207 249 262 316
25 30 55 66 67 80 11 14 101 122 200 241 98 118 304 367 458 553 154 186 291
356 304 377 l24 40 -24 25 c-13 14 -95 60 -184 104 -230 113 -361 162 -619
235 -143 40 -342 81 -436 91 -19 2 -53 6 -75 8 -105 14 -526 30 -538 20z m374
-840 c5 -3 3 -15 -4 -26 -13 -23 -115 -163 -188 -258 -109 -142 -180 -234
-258 -335 -47 -60 -89 -114 -93 -120 -4 -5 -18 -23 -32 -40 -13 -16 -87 -111
-165 -210 -78 -99 -147 -187 -154 -195 -6 -8 -100 -125 -207 -260 -107 -135
-199 -250 -205 -256 -5 -6 -23 -29 -40 -50 -70 -89 -148 -174 -160 -174 -21 0
-137 127 -207 226 -130 184 -320 688 -321 850 0 47 10 61 158 209 218 218 435
362 723 480 197 80 422 141 562 151 35 3 66 7 68 9 6 6 514 5 523 -1z"/>
<path d="M5503 6128 c-44 -62 -109 -156 -145 -208 -338 -495 -624 -913 -714
-1045 -103 -152 -267 -393 -506 -743 -59 -86 -112 -164 -118 -172 -5 -8 -56
-83 -112 -165 -57 -83 -125 -184 -153 -225 -27 -41 -54 -79 -58 -85 -9 -10
-139 -201 -301 -440 -52 -77 -127 -187 -167 -245 -39 -58 -104 -152 -143 -210
-40 -58 -189 -275 -332 -483 -142 -208 -263 -386 -269 -395 -5 -10 -87 -130
-181 -267 -342 -501 -398 -583 -510 -752 -69 -103 -112 -177 -108 -186 9 -24
314 -154 413 -176 27 -6 51 -6 62 -1 22 12 62 70 178 253 51 81 95 147 96 147
2 0 -3 -21 -11 -47 -61 -198 -88 -398 -56 -426 14 -12 84 -29 217 -52 17 -2
40 -7 51 -9 28 -6 78 -13 135 -21 40 -5 46 -4 56 17 7 13 14 41 17 63 15 109
69 285 127 411 16 34 29 66 29 70 0 11 144 274 218 399 167 282 620 963 656
987 6 4 14 2 17 -5 6 -10 29 -130 34 -177 3 -21 16 -120 20 -150 2 -14 7 -53
10 -88 4 -35 8 -72 10 -83 2 -11 7 -48 10 -82 3 -34 8 -73 10 -87 27 -156 27
-915 0 -1040 -3 -14 -8 -55 -11 -92 -5 -53 -3 -68 7 -69 30 -2 75 3 104 11 17
5 79 24 138 41 113 33 316 108 402 150 57 28 59 34 40 137 -7 37 -16 84 -19
106 -4 21 -8 41 -10 45 -2 3 -7 29 -10 56 -4 28 -8 61 -11 75 -6 37 -13 88
-20 155 -4 33 -8 76 -10 95 -2 19 -7 78 -10 130 -4 52 -8 120 -10 150 -2 30
-7 127 -10 215 -4 88 -8 175 -9 193 -3 38 -1 38 84 12 171 -52 427 -114 525
-126 22 -3 46 -7 54 -10 75 -25 621 -24 773 1 13 2 40 6 61 9 69 11 114 45
156 119 10 18 32 56 49 84 67 113 164 314 228 470 66 166 157 475 179 610 3
21 10 54 15 73 5 19 12 67 16 105 3 39 8 79 11 90 8 41 17 276 17 465 1 204
-6 334 -23 435 -6 33 -13 80 -16 105 -11 78 -56 282 -82 370 -28 98 -80 256
-92 285 -5 11 -17 40 -26 65 -119 325 -395 775 -633 1032 -113 122 -233 238
-246 238 -7 0 -49 -51 -93 -112z m343 -1265 c14 -32 30 -67 34 -78 33 -75 124
-404 135 -489 3 -27 8 -52 10 -56 2 -3 6 -30 10 -60 3 -30 10 -89 15 -130 8
-77 5 -507 -5 -615 -31 -339 -110 -665 -222 -923 -57 -129 -80 -163 -118 -174
-30 -9 -274 -11 -350 -4 -55 6 -125 15 -155 21 -14 2 -36 7 -50 10 -14 2 -36
7 -50 9 -115 21 -278 66 -426 117 -112 38 -382 148 -413 168 -11 7 17 54 129
218 147 212 172 249 251 363 25 36 122 175 216 310 93 135 242 349 329 475
201 289 376 542 489 710 123 182 125 185 136 185 6 0 21 -26 35 -57z"/>
</g>
</svg>
