<!DOCTYPE svg PUBLIC "-//W3C//DTD SVG 20010904//EN" "http://www.w3.org/TR/2001/REC-SVG-20010904/DTD/svg10.dtd">
<svg version="1.0" xmlns="http://www.w3.org/2000/svg" width="916px" height="1016px" viewBox="0 0 9160 10160" preserveAspectRatio="xMidYMid meet">
<g id="layer101" fill="#1b1b1b" stroke="none">
 <path d="M1175 9999 c-120 -333 -194 -695 -220 -1078 l-7 -94 34 7 c168 31 259 39 433 40 212 0 316 -15 465 -66 296 -103 479 -321 480 -569 0 -203 -136 -370 -330 -407 -30 -6 -140 -13 -245 -16 -521 -16 -914 -113 -1190 -295 -203 -133 -346 -336 -406 -573 -30 -120 -37 -363 -14 -523 28 -202 105 -472 201 -699 42 -101 99 -164 212 -240 372 -245 875 -300 1354 -146 92 29 128 45 133 59 3 10 -1 340 -10 732 -8 393 -15 748 -15 788 0 46 -4 71 -9 65 -5 -5 -29 -48 -54 -96 -73 -143 -103 -251 -178 -648 -40 -209 -95 -328 -180 -390 -167 -121 -454 -100 -682 50 -239 156 -397 450 -397 737 0 373 256 668 695 799 173 52 436 83 712 84 238 0 417 65 544 197 102 105 151 210 170 367 46 367 -186 778 -541 960 -176 90 -333 123 -528 111 -214 -14 -252 -13 -295 14 -109 67 -152 290 -128 665 10 158 9 199 -4 165z"/>
 <path d="M7817 9794 c-226 -343 -350 -630 -552 -1285 -102 -330 -138 -436 -155 -453 -10 -10 -25 64 -40 184 -27 232 -40 895 -20 1060 7 63 6 77 -7 87 -8 6 -21 9 -28 7 -15 -6 -82 -147 -161 -344 -69 -170 -68 -153 -35 -545 61 -717 65 -1184 15 -1525 -16 -107 -57 -278 -74 -311 -17 -31 4 -66 47 -78 124 -35 231 14 272 123 10 28 62 240 116 471 120 519 267 1115 299 1215 l24 75 1 -105 c2 -222 -31 -759 -70 -1125 -46 -446 -106 -762 -155 -816 -11 -12 -12 -23 -5 -43 6 -14 14 -26 17 -26 4 0 32 18 61 41 107 81 226 276 292 479 42 131 48 166 55 315 4 72 22 463 41 870 36 764 44 915 71 1365 l16 265 44 124 c24 68 42 126 40 129 -3 2 -52 -67 -109 -154z"/>
 <path d="M8233 9858 c-11 -42 -127 -260 -211 -394 l-81 -131 0 -799 c0 -985 -16 -1494 -56 -1814 -21 -170 -36 -209 -102 -281 -127 -137 -521 -354 -960 -528 -36 -15 -43 -40 -18 -64 8 -8 67 -25 132 -38 106 -21 144 -24 368 -23 258 0 369 10 605 55 244 46 560 138 673 195 42 22 48 29 45 52 -3 23 -9 28 -47 34 -123 21 -286 208 -332 378 -18 67 -23 820 -10 1360 6 250 18 682 27 960 8 278 16 629 17 780 l2 275 -23 3 c-18 3 -25 -2 -29 -20z"/>
 <path d="M5376 9338 c-2 -7 -11 -62 -21 -123 -17 -110 -131 -574 -243 -995 -34 -124 -99 -373 -147 -555 -47 -181 -88 -338 -91 -347 -4 -14 1 -18 25 -18 99 0 362 -164 488 -304 53 -59 103 -142 103 -172 0 -60 -100 -291 -246 -566 -52 -97 -94 -187 -94 -199 0 -22 0 -22 148 -16 317 11 557 105 740 288 111 111 177 227 229 398 22 74 26 106 27 226 1 93 -3 152 -12 178 -13 36 -15 37 -61 37 -81 0 -261 20 -366 41 -258 52 -504 175 -594 299 l-28 39 39 113 c111 321 172 703 184 1153 7 222 -8 498 -27 522 -14 17 -49 17 -53 1z m307 -2258 c164 -43 341 -80 387 -80 34 0 40 -3 40 -21 0 -75 -82 -274 -160 -389 -86 -127 -209 -229 -338 -279 -80 -32 -85 -30 -61 27 35 82 90 244 110 327 30 124 27 148 -40 305 -33 77 -57 140 -55 140 3 0 55 -13 117 -30z"/>
 <path d="M6666 9239 c-16 -51 -39 -110 -51 -129 -103 -164 -378 -252 -869 -279 -119 -6 -172 -13 -181 -22 -8 -9 -17 -69 -24 -164 -17 -223 -38 -427 -67 -645 -31 -231 -29 -294 10 -374 90 -184 341 -304 739 -353 159 -19 145 -8 172 -140 21 -98 21 -275 1 -369 -49 -232 -153 -412 -353 -612 -148 -149 -155 -168 -70 -195 103 -32 192 -42 372 -41 144 0 199 4 275 21 241 52 423 172 526 348 47 78 90 210 104 315 6 47 13 97 16 113 10 51 -11 27 -59 -67 -111 -219 -256 -345 -448 -391 -68 -16 -234 -21 -243 -7 -3 5 11 31 30 58 203 283 227 720 63 1140 -29 75 -45 104 -57 104 -9 0 -53 -7 -97 -15 -262 -47 -495 16 -556 150 -21 45 -23 63 -10 84 8 12 14 12 44 -2 83 -40 244 -31 482 25 l130 31 95 96 c131 132 167 211 103 227 -13 4 -43 -1 -66 -10 -75 -28 -259 -66 -358 -72 -265 -18 -450 91 -466 276 -6 66 14 117 50 124 12 2 68 12 124 20 374 58 610 239 668 513 15 69 19 268 6 312 -5 20 -12 7 -35 -70z"/>
 <path d="M5140 9232 c-41 -26 -261 -220 -286 -253 -6 -8 -19 -46 -28 -86 -32 -136 -217 -693 -426 -1285 l-52 -148 -103 0 -103 0 -31 48 c-115 180 -171 423 -114 500 62 84 122 229 168 406 52 203 52 194 5 357 -66 230 -101 340 -126 397 -21 48 -26 53 -51 50 l-28 -3 -7 -130 c-18 -373 -212 -883 -415 -1097 -31 -32 -54 -59 -52 -61 2 -2 24 -12 48 -22 59 -26 147 -115 204 -206 191 -307 137 -603 -145 -786 -40 -26 -111 -63 -156 -82 -46 -19 -79 -37 -75 -41 4 -3 41 -14 82 -23 182 -42 312 -143 425 -331 73 -121 135 -305 163 -481 8 -55 20 -106 25 -112 16 -19 114 -16 202 7 230 58 521 255 817 550 156 155 269 296 269 336 0 36 -52 87 -283 276 -116 95 -245 205 -286 243 l-74 71 15 29 c52 102 305 987 445 1554 61 250 71 344 38 349 -11 1 -40 -10 -65 -26z m-915 -2103 c319 -96 649 -281 711 -401 13 -25 11 -30 -34 -97 -103 -153 -258 -309 -415 -419 -60 -42 -237 -135 -244 -128 -2 2 -17 53 -33 113 -75 281 -185 488 -293 557 l-46 28 64 92 c79 113 125 209 125 257 l0 36 48 -8 c26 -5 79 -18 117 -30z"/>
 <path d="M3844 9187 c-11 -6 -36 -22 -55 -35 -47 -31 -143 -58 -279 -79 -178 -27 -723 -24 -1000 5 -330 36 -310 35 -275 18 17 -8 78 -31 138 -51 116 -40 175 -78 238 -156 138 -171 244 -400 285 -616 20 -110 15 -327 -10 -418 -72 -257 -291 -459 -611 -563 l-90 -30 -6 -438 c-11 -807 -14 -1363 -6 -1371 5 -4 11 -3 15 4 14 22 220 150 337 208 194 98 398 167 619 208 107 19 148 22 361 19 132 -1 269 -3 304 -5 l64 -2 14 50 c24 79 14 186 -23 266 -34 71 -133 185 -205 235 -40 28 -41 28 -55 9 -75 -102 -170 -146 -361 -166 -127 -13 -312 -2 -503 31 -157 27 -192 36 -201 52 -15 22 -11 612 4 630 6 9 78 60 159 113 132 85 156 97 220 110 222 42 666 20 734 -36 17 -14 18 -14 38 35 18 44 21 131 5 173 -21 57 -89 131 -163 181 l-76 51 -217 -6 -216 -6 32 47 c112 162 166 460 132 721 -14 103 -61 253 -97 307 -13 21 -24 39 -24 41 0 2 51 7 113 10 232 11 423 91 568 239 126 128 188 272 93 215z"/>
 <path d="M8985 6698 c-35 -76 -60 -82 -345 -88 -253 -5 -278 -9 -300 -50 -42 -79 60 -230 224 -329 l57 -34 67 29 c86 36 228 132 276 185 51 56 86 133 86 190 0 46 -26 139 -39 139 -3 0 -15 -19 -26 -42z"/>
 <path d="M5823 5731 c-41 -138 -91 -267 -156 -401 -29 -58 -53 -108 -55 -112 -2 -3 7 -8 19 -10 17 -2 32 -23 60 -78 43 -85 142 -326 142 -346 0 -7 -33 -121 -73 -253 -40 -133 -70 -244 -67 -248 4 -3 56 4 116 17 l110 23 27 76 c52 145 103 281 112 297 9 16 52 -112 93 -281 12 -49 23 -91 23 -92 5 -7 201 -43 212 -39 20 8 19 17 -26 182 -22 82 -45 185 -52 230 l-12 81 42 121 c56 163 97 247 142 291 l38 37 -33 69 c-45 93 -99 276 -120 405 -9 58 -19 112 -22 120 -6 21 -61 -109 -83 -200 -11 -41 -38 -203 -60 -359 -22 -156 -43 -288 -46 -293 -3 -4 -45 -8 -93 -8 l-88 0 -6 228 c-7 239 -19 374 -43 482 -16 70 -52 170 -63 170 -3 0 -20 -49 -38 -109z"/>
 <path d="M5367 5679 c-209 -115 -336 -276 -399 -504 -22 -76 -23 -99 -23 -445 -1 -316 -3 -370 -17 -402 -22 -50 -56 -69 -136 -78 -151 -16 -304 -134 -376 -290 -21 -45 -23 -56 -11 -58 8 -2 140 8 292 22 302 28 574 47 584 40 13 -8 37 7 42 26 2 10 -4 58 -14 106 -72 354 -83 752 -29 1069 32 185 63 299 127 453 19 46 33 87 31 91 -2 4 -33 -10 -71 -30z"/>
 <path d="M7375 5535 c-239 -125 -443 -217 -580 -261 -55 -18 -104 -39 -110 -48 -6 -10 -5 -30 3 -58 93 -321 95 -487 6 -666 -44 -90 -135 -189 -230 -252 -72 -47 -117 -67 -217 -95 -32 -9 -57 -19 -54 -21 9 -9 169 -33 302 -44 168 -15 432 -8 560 15 277 50 450 155 532 323 19 40 33 75 30 78 -2 2 -46 -12 -98 -32 -179 -69 -324 -91 -410 -63 -76 26 -119 92 -119 183 0 50 3 57 28 70 50 26 106 35 268 46 215 14 213 14 241 83 24 60 51 192 41 202 -3 3 -51 -6 -107 -20 -204 -51 -424 -79 -458 -57 -7 4 -17 41 -24 81 -13 87 -13 88 81 121 95 33 186 97 287 204 75 77 243 293 243 311 0 10 -20 1 -215 -100z"/>
 <path d="M3180 5509 c0 -11 26 -47 60 -82 73 -75 130 -185 162 -312 19 -77 23 -115 22 -265 0 -148 -4 -187 -22 -255 -46 -167 -122 -285 -221 -343 -43 -25 -56 -27 -186 -31 l-140 -3 130 -49 c214 -79 284 -93 470 -94 138 0 171 3 238 23 225 65 403 211 497 407 49 103 64 171 57 252 -10 108 -18 108 -73 3 -80 -156 -203 -270 -335 -311 -102 -32 -205 -20 -223 26 -11 31 -6 90 13 131 22 48 53 63 193 94 119 26 184 58 241 119 40 43 107 155 107 180 0 5 -48 -15 -107 -45 -199 -99 -358 -107 -404 -22 -7 13 -15 60 -19 104 -9 116 -41 175 -160 295 -147 148 -300 239 -300 178z"/>
 <path d="M2646 5484 c-110 -35 -219 -194 -268 -389 -27 -109 -32 -344 -9 -435 45 -181 139 -293 280 -334 216 -63 390 61 446 317 24 109 17 347 -14 462 -45 170 -140 319 -235 367 -52 27 -138 32 -200 12z m147 -214 c37 -30 94 -152 112 -242 18 -94 19 -155 1 -229 -27 -115 -81 -169 -170 -169 -146 0 -222 159 -182 380 18 99 72 216 117 254 37 32 86 34 122 6z"/>
 <path d="M5311 4406 c-8 -10 -7 -52 4 -152 23 -207 33 -275 40 -282 4 -4 61 -7 128 -7 179 1 298 39 487 154 l85 52 -101 -7 c-89 -6 -109 -4 -170 16 -86 29 -189 80 -324 162 -126 77 -135 81 -149 64z"/>
 <path d="M2644 4127 c-281 -364 -442 -757 -513 -1252 -78 -549 -42 -1126 115 -1849 43 -196 46 -218 35 -257 -18 -65 -74 -135 -142 -179 -94 -61 -147 -75 -274 -75 -98 0 -116 3 -167 27 -64 30 -134 91 -175 152 -16 23 -37 42 -50 44 -49 7 -131 -65 -177 -156 -63 -124 -80 -297 -37 -381 l22 -43 22 20 c31 29 198 39 897 53 311 7 566 13 568 14 1 1 -14 53 -33 116 -52 165 -98 340 -91 347 23 22 69 -92 137 -341 27 -98 43 -112 103 -88 19 8 149 18 326 26 414 20 566 49 789 151 l83 39 -158 1 c-178 1 -154 -5 -632 138 -123 36 -269 75 -325 87 -103 21 -260 30 -309 16 l-26 -7 -31 128 c-84 354 -149 778 -182 1187 -16 195 -16 691 0 870 43 490 122 822 306 1288 16 39 -14 11 -81 -76z"/>
 <path d="M5914 3695 c-40 -20 -122 -79 -194 -141 -167 -142 -247 -198 -357 -251 -114 -54 -198 -73 -333 -73 -161 0 -290 33 -479 121 -58 27 -108 46 -112 42 -10 -11 -103 -485 -134 -688 -120 -772 -134 -1582 -38 -2120 21 -120 27 -135 57 -135 19 0 30 12 56 63 84 161 242 342 372 426 65 42 77 61 38 61 -22 0 -39 41 -68 160 -69 285 -108 677 -99 1002 8 281 43 466 111 582 24 41 30 45 84 56 123 24 297 72 390 106 288 108 430 221 626 499 64 91 132 172 194 233 l95 92 -70 0 c-60 0 -80 -5 -139 -35z"/>
 <path d="M7586 3580 c-218 -85 -812 -139 -1220 -111 -92 7 -169 11 -171 9 -2 -2 -8 -59 -14 -128 -42 -445 -158 -812 -349 -1100 -67 -100 -251 -289 -339 -349 -77 -51 -181 -104 -251 -126 -61 -20 -85 -51 -57 -71 22 -16 240 -69 365 -88 685 -107 1297 31 1744 391 114 91 263 239 253 249 -4 4 -51 -6 -104 -21 -273 -78 -488 -116 -653 -117 -127 -1 -203 14 -262 51 -55 35 -78 81 -77 153 2 100 7 109 74 136 96 39 254 70 490 97 168 19 226 30 245 44 13 10 64 87 112 171 86 150 105 204 75 216 -8 3 -79 -14 -158 -36 -304 -86 -565 -125 -681 -101 -79 17 -108 48 -108 115 0 83 5 92 61 104 67 16 244 37 524 63 127 11 257 26 290 32 l60 12 70 135 c39 75 89 168 113 207 23 39 42 74 42 77 0 10 -23 6 -74 -14z"/>
 <path d="M3672 3083 c-6 -16 -43 -113 -83 -218 -39 -104 -93 -236 -119 -291 l-48 -102 -71 -7 c-62 -6 -75 -5 -93 11 -35 32 -104 191 -174 402 -60 178 -70 202 -89 202 -15 0 -32 -16 -56 -52 -18 -29 -102 -122 -187 -207 -84 -84 -151 -155 -150 -156 2 -1 29 -15 60 -29 182 -85 304 -398 340 -867 l12 -159 176 0 c97 0 244 3 327 7 l150 6 7 121 c13 240 37 378 92 546 65 197 170 343 294 409 33 18 60 35 60 39 0 4 -35 24 -78 44 -101 49 -211 143 -286 245 -34 45 -64 82 -67 82 -4 1 -11 -11 -17 -26z m-336 -1251 c-54 -1 -100 -1 -101 0 -2 2 20 70 48 152 l50 149 51 -149 51 -149 -99 -3z"/>
 </g>

</svg>